<?xml version="1.0" encoding="UTF-8"?>
<!-- Generator: Adobe Illustrator 25.4.1, SVG Export Plug-In . SVG Version: 6.00 Build 0)  -->
<svg version="1.1" id="Layer_1" xmlns="http://www.w3.org/2000/svg" xmlns:xlink="http://www.w3.org/1999/xlink" x="0px" y="0px" viewBox="0 0 400 100" style="enable-background:new 0 0 400 100;" xml:space="preserve">
<style>
@import url('https://fonts.googleapis.com/css2?family=Oswald:wght@600');
</style>	 
<style type="text/css">
	.st0{fill-rule:evenodd;clip-rule:evenodd;fill:#00ADEE;}
	.st1{fill:#00ADEE;}
	.st2{fill:#7DC795;}
	.st3{fill:#B158A1;}
	.st4{fill:#79CFE2;}
	.st5{fill:#E64F25;}
	.st6{fill:#E47925;}
	.st7{fill:#F1D372;}
	.st8{fill:#6EBD44;}
	.st9{fill:#72C8C0;}
	.st10{fill:#7A63AA;}
	.st11{fill:#0096CF;}
	.st12{fill:#F1CB2F;}
	.st13{fill:#E54325;}
	.st14{fill:#F27021;}
	.st15{fill:#0099FF;}
	.st16{font-family: 'Oswald', sans-serif;}
	.st17{font-size:24px;}
	.st18{font-family: 'Oswald', sans-serif;}
	.st19{font-size:12px;}
	.st20{letter-spacing:2px;}
</style>
<g>
	<path class="st0" d="M47.5,5l-45,45l45.1,45l44.9-45L47.5,5z M12.2,59.7V40.4H83v19.3C82.9,59.7,12.2,59.7,12.2,59.7z"/>
	<path class="st1" d="M34.1,57.7V42.3H38v15.4C38,57.7,34.1,57.7,34.1,57.7z M41.6,57.7V42.3h14.1v2.6H45.5v3.4H55V51h-9.6v4.2H56   v2.6C56.1,57.7,41.6,57.7,41.6,57.7z M62.6,50c0,1.7,0.5,3.1,1.5,4s2.3,1.3,3.8,1.3s2.8-0.5,3.8-1.3c1-0.9,1.5-2.2,1.5-4   s-0.5-3.1-1.4-4c-1-0.9-2.2-1.3-3.8-1.3c-1.6,0-2.9,0.4-3.8,1.3C63,46.9,62.6,48.2,62.6,50z M58.6,50.1c0-1.6,0.3-2.9,0.9-4   c0.4-0.8,1-1.5,1.8-2.1c0.7-0.6,1.6-1.1,2.5-1.4c1.2-0.4,2.6-0.6,4.1-0.6c2.8,0,5.1,0.7,6.7,2.1c1.7,1.4,2.5,3.4,2.5,5.9   s-0.8,4.4-2.5,5.8c-1.7,1.4-3.9,2.1-6.7,2.1c-2.8,0-5.1-0.7-6.8-2.1C59.4,54.5,58.6,52.6,58.6,50.1z M18,57.7V42.3h13v2.6h-9.2v3.6   h8v2.6h-8v6.5H18V57.7z"/>
	<polygon class="st2" points="47.5,5 35.7,16.8 47.5,28.5  "/>
	<polygon class="st3" points="47.5,28.5 59.4,16.8 47.5,5  "/>
	<polygon class="st4" points="59.4,16.8 47.5,28.5 59.4,40.4  "/>
	<polygon class="st5" points="59.4,40.4 47.5,28.5 35.7,40.4  "/>
	<polygon class="st6" points="35.7,40.4 24,28.5 12.2,40.4  "/>
	<polygon class="st7" points="82.9,40.4 71.1,28.6 59.4,40.4  "/>
	<polygon class="st8" points="59.4,40.4 71.1,28.6 59.4,16.8  "/>
	<polygon class="st9" points="35.7,16.9 24,28.5 35.7,40.4  "/>
	<polygon class="st10" points="35.7,40.4 47.5,28.5 35.7,16.8  "/>
	<polygon class="st11" points="47.6,95 59.5,83.2 47.6,71.4  "/>
	<polygon class="st8" points="47.6,71.4 35.8,83.2 47.6,95  "/>
	<polygon class="st12" points="35.8,83.2 47.6,71.4 35.8,59.7  "/>
	<polygon class="st9" points="35.8,59.7 47.6,71.4 59.5,59.7  "/>
	<polygon class="st13" points="59.5,59.7 71.2,71.4 82.9,59.7  "/>
	<polygon class="st3" points="12.2,59.7 24,71.4 35.8,59.7  "/>
	<polygon class="st14" points="35.8,59.7 24,71.4 35.8,83.2  "/>
	<polygon class="st8" points="59.5,83.2 71.2,71.4 59.5,59.7  "/>
	<polygon class="st10" points="59.5,59.7 47.6,71.4 59.5,83.2  "/>
</g>
<text transform="matrix(1 0 0 1 98 25.5957)" class="st15 st16 st17">FEDERATION OF INDIAN</text>
<text transform="matrix(1 0 0 1 98 54.3957)" class="st15 st16 st17">EXPORT ORGANISATIONS</text>
<text transform="matrix(1 0 0 1 98 76.7031)" class="st18 st19">Set up by Ministry of Commerce, Government of India</text>
<text transform="matrix(1 0 0 1 98 91.1031)" class="st18 st19 st20">ISO 9001 : 2015 Certified</text>
</svg>